<svg width="103" height="103" viewBox="0 0 103 103" fill="none" xmlns="http://www.w3.org/2000/svg">
<g filter="url(#filter0_iiii_50_25)">
<circle cx="51.2485" cy="51.2485" r="51.2485" fill="#00FFE0"/>
</g>
<g filter="url(#filter1_iiii_50_25)">
<circle cx="51.2485" cy="51.2485" r="51.2485" fill="url(#paint0_linear_50_25)"/>
</g>
<path d="M45.9917 48.9167C47.2417 48.9167 48.2542 49.8542 48.2312 51.0001C48.2312 52.1459 47.2437 53.0834 45.9917 53.0834C44.7625 53.0834 43.75 52.1459 43.75 51.0001C43.75 49.8542 44.7396 48.9167 45.9917 48.9167ZM54.0083 48.9167C55.2604 48.9167 56.25 49.8542 56.25 51.0001C56.25 52.1459 55.2604 53.0834 54.0083 53.0834C52.7792 53.0834 51.7687 52.1459 51.7687 51.0001C51.7687 49.8542 52.7562 48.9167 54.0083 48.9167ZM64.3563 30.1667C66.7792 30.1667 68.75 32.1792 68.75 34.673V73.9167L64.1437 69.7605L61.55 67.3105L58.8062 64.7063L59.9438 68.7542H35.6438C33.2208 68.7542 31.25 66.7417 31.25 64.248V34.673C31.25 32.1792 33.2208 30.1667 35.6438 30.1667H64.3542H64.3563ZM56.0854 58.7355C60.8208 58.5834 62.6437 55.4105 62.6437 55.4105C62.6437 48.3667 59.5562 42.6563 59.5562 42.6563C56.4729 40.2959 53.5354 40.3605 53.5354 40.3605L53.2354 40.7105C56.8792 41.848 58.5708 43.4897 58.5708 43.4897C56.5814 42.3688 54.3888 41.6549 52.1208 41.3897C50.6822 41.2272 49.229 41.2412 47.7937 41.4313C47.6646 41.4313 47.5562 41.4542 47.4292 41.4751C46.6792 41.5417 44.8562 41.8251 42.5646 42.8542C41.7729 43.2251 41.3 43.4897 41.3 43.4897C41.3 43.4897 43.0792 41.7605 46.9354 40.623L46.7208 40.3605C46.7208 40.3605 43.7854 40.2959 40.7 42.6584C40.7 42.6584 37.6146 48.3667 37.6146 55.4105C37.6146 55.4105 39.4146 58.5813 44.15 58.7355C44.15 58.7355 44.9417 57.7522 45.5875 56.9209C42.8646 56.0876 41.8375 54.3376 41.8375 54.3376C41.8375 54.3376 42.05 54.4917 42.4354 54.7105C42.4563 54.7313 42.4771 54.7542 42.5208 54.7751C42.5854 54.8209 42.65 54.8417 42.7146 54.8855C43.25 55.1917 43.7854 55.4313 44.2771 55.6292C45.1562 55.9792 46.2062 56.3292 47.4292 56.5709C49.2611 56.93 51.1446 56.9371 52.9792 56.5917C54.0477 56.401 55.0903 56.0857 56.0854 55.6522C56.8354 55.3667 57.6708 54.9501 58.55 54.3605C58.55 54.3605 57.4792 56.1542 54.6708 56.9647C55.3146 57.7959 56.0875 58.7355 56.0875 58.7355H56.0854Z" fill="#004A41"/>
<defs>
<filter id="filter0_iiii_50_25" x="-30" y="-30" width="162.497" height="162.497" filterUnits="userSpaceOnUse" color-interpolation-filters="sRGB">
<feFlood flood-opacity="0" result="BackgroundImageFix"/>
<feBlend mode="normal" in="SourceGraphic" in2="BackgroundImageFix" result="shape"/>
<feColorMatrix in="SourceAlpha" type="matrix" values="0 0 0 0 0 0 0 0 0 0 0 0 0 0 0 0 0 0 127 0" result="hardAlpha"/>
<feOffset dx="-30" dy="-30"/>
<feGaussianBlur stdDeviation="30"/>
<feComposite in2="hardAlpha" operator="arithmetic" k2="-1" k3="1"/>
<feColorMatrix type="matrix" values="0 0 0 0 0 0 0 0 0 0 0 0 0 0 0 0 0 0 0.25 0"/>
<feBlend mode="normal" in2="shape" result="effect1_innerShadow_50_25"/>
<feColorMatrix in="SourceAlpha" type="matrix" values="0 0 0 0 0 0 0 0 0 0 0 0 0 0 0 0 0 0 127 0" result="hardAlpha"/>
<feOffset dx="-5" dy="-5"/>
<feGaussianBlur stdDeviation="5"/>
<feComposite in2="hardAlpha" operator="arithmetic" k2="-1" k3="1"/>
<feColorMatrix type="matrix" values="0 0 0 0 0 0 0 0 0 0 0 0 0 0 0 0 0 0 0.25 0"/>
<feBlend mode="normal" in2="effect1_innerShadow_50_25" result="effect2_innerShadow_50_25"/>
<feColorMatrix in="SourceAlpha" type="matrix" values="0 0 0 0 0 0 0 0 0 0 0 0 0 0 0 0 0 0 127 0" result="hardAlpha"/>
<feOffset dx="30" dy="30"/>
<feGaussianBlur stdDeviation="30"/>
<feComposite in2="hardAlpha" operator="arithmetic" k2="-1" k3="1"/>
<feColorMatrix type="matrix" values="0 0 0 0 1 0 0 0 0 1 0 0 0 0 1 0 0 0 0.4 0"/>
<feBlend mode="normal" in2="effect2_innerShadow_50_25" result="effect3_innerShadow_50_25"/>
<feColorMatrix in="SourceAlpha" type="matrix" values="0 0 0 0 0 0 0 0 0 0 0 0 0 0 0 0 0 0 127 0" result="hardAlpha"/>
<feOffset dx="5" dy="5"/>
<feGaussianBlur stdDeviation="25"/>
<feComposite in2="hardAlpha" operator="arithmetic" k2="-1" k3="1"/>
<feColorMatrix type="matrix" values="0 0 0 0 1 0 0 0 0 1 0 0 0 0 1 0 0 0 0.25 0"/>
<feBlend mode="normal" in2="effect3_innerShadow_50_25" result="effect4_innerShadow_50_25"/>
</filter>
<filter id="filter1_iiii_50_25" x="-30" y="-30" width="162.497" height="162.497" filterUnits="userSpaceOnUse" color-interpolation-filters="sRGB">
<feFlood flood-opacity="0" result="BackgroundImageFix"/>
<feBlend mode="normal" in="SourceGraphic" in2="BackgroundImageFix" result="shape"/>
<feColorMatrix in="SourceAlpha" type="matrix" values="0 0 0 0 0 0 0 0 0 0 0 0 0 0 0 0 0 0 127 0" result="hardAlpha"/>
<feOffset dx="-30" dy="-30"/>
<feGaussianBlur stdDeviation="30"/>
<feComposite in2="hardAlpha" operator="arithmetic" k2="-1" k3="1"/>
<feColorMatrix type="matrix" values="0 0 0 0 0 0 0 0 0 0 0 0 0 0 0 0 0 0 0.25 0"/>
<feBlend mode="normal" in2="shape" result="effect1_innerShadow_50_25"/>
<feColorMatrix in="SourceAlpha" type="matrix" values="0 0 0 0 0 0 0 0 0 0 0 0 0 0 0 0 0 0 127 0" result="hardAlpha"/>
<feOffset dx="-5" dy="-5"/>
<feGaussianBlur stdDeviation="5"/>
<feComposite in2="hardAlpha" operator="arithmetic" k2="-1" k3="1"/>
<feColorMatrix type="matrix" values="0 0 0 0 0 0 0 0 0 0 0 0 0 0 0 0 0 0 0.25 0"/>
<feBlend mode="normal" in2="effect1_innerShadow_50_25" result="effect2_innerShadow_50_25"/>
<feColorMatrix in="SourceAlpha" type="matrix" values="0 0 0 0 0 0 0 0 0 0 0 0 0 0 0 0 0 0 127 0" result="hardAlpha"/>
<feOffset dx="30" dy="30"/>
<feGaussianBlur stdDeviation="30"/>
<feComposite in2="hardAlpha" operator="arithmetic" k2="-1" k3="1"/>
<feColorMatrix type="matrix" values="0 0 0 0 1 0 0 0 0 1 0 0 0 0 1 0 0 0 0.4 0"/>
<feBlend mode="normal" in2="effect2_innerShadow_50_25" result="effect3_innerShadow_50_25"/>
<feColorMatrix in="SourceAlpha" type="matrix" values="0 0 0 0 0 0 0 0 0 0 0 0 0 0 0 0 0 0 127 0" result="hardAlpha"/>
<feOffset dx="5" dy="5"/>
<feGaussianBlur stdDeviation="25"/>
<feComposite in2="hardAlpha" operator="arithmetic" k2="-1" k3="1"/>
<feColorMatrix type="matrix" values="0 0 0 0 1 0 0 0 0 1 0 0 0 0 1 0 0 0 0.25 0"/>
<feBlend mode="normal" in2="effect3_innerShadow_50_25" result="effect4_innerShadow_50_25"/>
</filter>
<linearGradient id="paint0_linear_50_25" x1="11.2" y1="16.9697" x2="78.7394" y2="95.3697" gradientUnits="userSpaceOnUse">
<stop stop-color="#00FFE0"/>
<stop offset="0.0001" stop-color="white"/>
<stop offset="1" stop-color="white" stop-opacity="0"/>
</linearGradient>
</defs>
</svg>
