<svg width="1389" height="1216" viewBox="0 0 1389 1216" fill="none" xmlns="http://www.w3.org/2000/svg">
<g clip-path="url(#clip0_404_5)">
<path d="M467.15 442.27C468.85 466.2 476.84 532.61 528.53 590.15C568.65 634.82 615.13 651.89 634.62 658.78C651.94 664.91 689.19 677.66 738.77 673.85C795.51 669.49 837.18 645.85 859.41 630.3C891.297 607.928 917.469 578.364 935.81 544C931.44 574.89 913.63 672.67 834.31 725.12C813.73 738.73 794.76 745.49 784.65 749.02C693.23 780.95 612.45 749.02 598.92 743.39C577.63 734.59 527.27 713 491.04 660.39C426.91 567.35 462.14 457.13 467.15 442.27Z" fill="#002924"/>
<path d="M833.81 272.35C816.81 284.14 761.04 325.85 743.41 399.61C736.755 425.937 735.753 453.375 740.471 480.118C745.188 506.86 755.518 532.299 770.78 554.76C760.47 554.71 698.92 553.38 653.43 503.14C643.79 492.48 604.77 446.39 613.99 383.07C620.99 335.07 651.5 305.78 661.1 297.29C705.22 258.31 771.69 249.7 833.81 272.35Z" fill="#002924"/>
<path d="M634.58 290C626.92 298 566.79 363.22 581.87 447.68C590.17 494.16 617.43 525.12 625.8 534.39C658.34 570.39 695.67 583.07 710.12 587.75C766.3 605.98 814.83 594.29 834.26 588.43C822.57 597.2 752.93 647.69 665.32 629.13C651.78 626.26 606.74 616.08 567.82 576.32C558 566.27 530.27 537.2 519.87 489.77C517.5 479 503.93 411.64 548.15 351.4C578.23 310.42 618.63 295.1 634.58 290Z" fill="#002924"/>
</g>
<g clip-path="url(#clip1_404_5)" filter="url(#filter0_f_404_5)">
<path d="M467.15 442.27C468.85 466.2 476.84 532.61 528.53 590.15C568.65 634.82 615.13 651.89 634.62 658.78C651.94 664.91 689.19 677.66 738.77 673.85C795.51 669.49 837.18 645.85 859.41 630.3C891.297 607.928 917.469 578.364 935.81 544C931.44 574.89 913.63 672.67 834.31 725.12C813.73 738.73 794.76 745.49 784.65 749.02C693.23 780.95 612.45 749.02 598.92 743.39C577.63 734.59 527.27 713 491.04 660.39C426.91 567.35 462.14 457.13 467.15 442.27Z" fill="#002924"/>
<path d="M833.81 272.35C816.81 284.14 761.04 325.85 743.41 399.61C736.755 425.937 735.753 453.375 740.471 480.118C745.188 506.86 755.518 532.299 770.78 554.76C760.47 554.71 698.92 553.38 653.43 503.14C643.79 492.48 604.77 446.39 613.99 383.07C620.99 335.07 651.5 305.78 661.1 297.29C705.22 258.31 771.69 249.7 833.81 272.35Z" fill="#002924"/>
<path d="M634.58 290C626.92 298 566.79 363.22 581.87 447.68C590.17 494.16 617.43 525.12 625.8 534.39C658.34 570.39 695.67 583.07 710.12 587.75C766.3 605.98 814.83 594.29 834.26 588.43C822.57 597.2 752.93 647.69 665.32 629.13C651.78 626.26 606.74 616.08 567.82 576.32C558 566.27 530.27 537.2 519.87 489.77C517.5 479 503.93 411.64 548.15 351.4C578.23 310.42 618.63 295.1 634.58 290Z" fill="#002924"/>
</g>
<defs>
<filter id="filter0_f_404_5" x="0" y="-193" width="1388.81" height="1409" filterUnits="userSpaceOnUse" color-interpolation-filters="sRGB">
<feFlood flood-opacity="0" result="BackgroundImageFix"/>
<feBlend mode="normal" in="SourceGraphic" in2="BackgroundImageFix" result="shape"/>
<feGaussianBlur stdDeviation="226.5" result="effect1_foregroundBlur_404_5"/>
</filter>
<clipPath id="clip0_404_5">
<rect width="482.81" height="503" fill="white" transform="translate(453 260)"/>
</clipPath>
<clipPath id="clip1_404_5">
<rect width="482.81" height="503" fill="white" transform="translate(453 260)"/>
</clipPath>
</defs>
</svg>
