<svg width="22" height="23" viewBox="0 0 22 23" fill="none" xmlns="http://www.w3.org/2000/svg">
<path d="M0.636658 8.3887C0.713153 9.45117 1.07268 12.3997 3.39859 14.9544C5.20387 16.9377 7.29534 17.6956 8.17234 18.0015C8.95169 18.2737 10.6278 18.8398 12.8588 18.6706C15.4119 18.477 17.287 17.4274 18.2873 16.737C19.7221 15.7437 20.8998 14.4311 21.725 12.9054C21.5284 14.2769 20.727 18.6182 17.1578 20.9469C16.2318 21.5512 15.3782 21.8513 14.9233 22.0081C10.8096 23.4257 7.17475 22.0081 6.56594 21.7581C5.60795 21.3674 3.34189 20.4088 1.71164 18.073C-1.17403 13.9421 0.411222 9.04847 0.636658 8.3887Z" fill="white"/>
<path d="M17.1353 0.844372C16.3704 1.36783 13.8609 3.21971 13.0676 6.49457C12.7681 7.66346 12.723 8.8817 12.9353 10.069C13.1476 11.2564 13.6124 12.3858 14.2991 13.3831C13.8352 13.3808 11.0656 13.3218 9.01872 11.0912C8.58494 10.6179 6.82915 8.57155 7.24403 5.76021C7.55901 3.62907 8.93187 2.32863 9.36385 1.95168C11.3491 0.221012 14.3401 -0.161263 17.1353 0.844372Z" fill="white"/>
<path d="M8.17052 1.62796C7.82584 1.98315 5.12016 4.87885 5.79872 8.62878C6.1722 10.6924 7.39882 12.067 7.77545 12.4786C9.23966 14.077 10.9194 14.6399 11.5696 14.8477C14.0976 15.6571 16.2813 15.1381 17.1556 14.8779C16.6295 15.2673 13.4959 17.509 9.55374 16.685C8.94448 16.5575 6.9178 16.1055 5.16651 14.3402C4.72464 13.894 3.47687 12.6034 3.0089 10.4975C2.90225 10.0193 2.29164 7.02864 4.28142 4.35405C5.63493 2.53459 7.45282 1.85439 8.17052 1.62796Z" fill="white"/>
</svg>
